<svg width="285" height="74" viewBox="0 0 285 74" fill="none" xmlns="http://www.w3.org/2000/svg">
<path d="M13.8078 6.91406C13.8078 10.7324 10.7165 13.8268 6.90272 13.8268C3.09198 13.8268 0 10.7324 0 6.91406C0 3.09569 3.09198 0 6.90272 0C10.7165 0 13.8078 3.09569 13.8078 6.91406Z" fill="#DDF444"/>
<path d="M40.9265 6.91406C40.9265 10.7324 37.8369 13.8268 34.0238 13.8268C30.2106 13.8268 27.1211 10.7324 27.1211 6.91406C27.1211 3.09569 30.2106 0 34.0238 0C37.8369 0 40.9265 3.09569 40.9265 6.91406Z" fill="#DDF444"/>
<path d="M68.0461 6.91406C68.0461 10.7324 64.9547 13.8268 61.1434 13.8268C57.3303 13.8268 54.2383 10.7324 54.2383 6.91406C54.2383 3.09569 57.3303 0 61.1434 0C64.9547 0 68.0461 3.09569 68.0461 6.91406Z" fill="#DDF444"/>
<path d="M95.1647 6.91406C95.1647 10.7324 92.0734 13.8268 88.262 13.8268C84.4489 13.8268 81.3594 10.7324 81.3594 6.91406C81.3594 3.09569 84.4489 0 88.262 0C92.0734 0 95.1647 3.09569 95.1647 6.91406Z" fill="#DDF444"/>
<path d="M122.284 6.91406C122.284 10.7324 119.193 13.8268 115.379 13.8268C111.569 13.8268 108.477 10.7324 108.477 6.91406C108.477 3.09569 111.569 0 115.379 0C119.193 0 122.284 3.09569 122.284 6.91406Z" fill="#DDF444"/>
<path d="M149.402 6.91406C149.402 10.7324 146.311 13.8268 142.5 13.8268C138.687 13.8268 135.597 10.7324 135.597 6.91406C135.597 3.09569 138.687 0 142.5 0C146.311 0 149.402 3.09569 149.402 6.91406Z" fill="#DDF444"/>
<path d="M176.52 6.91406C176.52 10.7324 173.431 13.8268 169.618 13.8268C165.807 13.8268 162.717 10.7324 162.717 6.91406C162.717 3.09569 165.807 0 169.618 0C173.431 0 176.52 3.09569 176.52 6.91406Z" fill="#DDF444"/>
<path d="M203.643 6.91406C203.643 10.7324 200.551 13.8268 196.738 13.8268C192.925 13.8268 189.835 10.7324 189.835 6.91406C189.835 3.09569 192.925 0 196.738 0C200.551 0 203.643 3.09569 203.643 6.91406Z" fill="#DDF444"/>
<path d="M230.762 6.91406C230.762 10.7324 227.673 13.8268 223.857 13.8268C220.047 13.8268 216.955 10.7324 216.955 6.91406C216.955 3.09569 220.047 0 223.857 0C227.673 0 230.762 3.09569 230.762 6.91406Z" fill="#DDF444"/>
<path d="M257.88 6.91406C257.88 10.7324 254.79 13.8268 250.977 13.8268C247.164 13.8268 244.075 10.7324 244.075 6.91406C244.075 3.09569 247.164 0 250.977 0C254.79 0 257.88 3.09569 257.88 6.91406Z" fill="#DDF444"/>
<path d="M285 6.91406C285 10.7324 281.909 13.8268 278.098 13.8268C274.284 13.8268 271.195 10.7324 271.195 6.91406C271.195 3.09569 274.284 0 278.098 0C281.909 0 285 3.09569 285 6.91406Z" fill="#DDF444"/>
<path d="M13.8078 37.0004C13.8078 40.8187 10.7165 43.9125 6.90272 43.9125C3.09198 43.9125 0 40.8187 0 37.0004C0 33.182 3.09198 30.0864 6.90272 30.0864C10.7165 30.0864 13.8078 33.182 13.8078 37.0004Z" fill="#DDF444"/>
<path d="M40.9265 37.0004C40.9265 40.8187 37.8369 43.9125 34.0238 43.9125C30.2106 43.9125 27.1211 40.8187 27.1211 37.0004C27.1211 33.182 30.2106 30.0864 34.0238 30.0864C37.8369 30.0864 40.9265 33.182 40.9265 37.0004Z" fill="#DDF444"/>
<path d="M68.0461 37.0004C68.0461 40.8187 64.9547 43.9125 61.1434 43.9125C57.3303 43.9125 54.2383 40.8187 54.2383 37.0004C54.2383 33.182 57.3303 30.0864 61.1434 30.0864C64.9547 30.0864 68.0461 33.182 68.0461 37.0004Z" fill="#DDF444"/>
<path d="M95.1647 37.0004C95.1647 40.8187 92.0734 43.9125 88.262 43.9125C84.4489 43.9125 81.3594 40.8187 81.3594 37.0004C81.3594 33.182 84.4489 30.0864 88.262 30.0864C92.0734 30.0864 95.1647 33.182 95.1647 37.0004Z" fill="#DDF444"/>
<path d="M122.284 37.0004C122.284 40.8187 119.193 43.9125 115.379 43.9125C111.569 43.9125 108.477 40.8187 108.477 37.0004C108.477 33.182 111.569 30.0864 115.379 30.0864C119.193 30.0864 122.284 33.182 122.284 37.0004Z" fill="#DDF444"/>
<path d="M149.402 37.0004C149.402 40.8187 146.311 43.9125 142.5 43.9125C138.687 43.9125 135.597 40.8187 135.597 37.0004C135.597 33.182 138.687 30.0864 142.5 30.0864C146.311 30.0864 149.402 33.182 149.402 37.0004Z" fill="#DDF444"/>
<path d="M176.52 37.0004C176.52 40.8187 173.431 43.9125 169.618 43.9125C165.807 43.9125 162.717 40.8187 162.717 37.0004C162.717 33.182 165.807 30.0864 169.618 30.0864C173.431 30.0864 176.52 33.182 176.52 37.0004Z" fill="#DDF444"/>
<path d="M203.643 37.0004C203.643 40.8187 200.551 43.9125 196.738 43.9125C192.925 43.9125 189.835 40.8187 189.835 37.0004C189.835 33.182 192.925 30.0864 196.738 30.0864C200.551 30.0864 203.643 33.182 203.643 37.0004Z" fill="#DDF444"/>
<path d="M230.762 37.0004C230.762 40.8187 227.673 43.9125 223.857 43.9125C220.047 43.9125 216.955 40.8187 216.955 37.0004C216.955 33.182 220.047 30.0864 223.857 30.0864C227.673 30.0864 230.762 33.182 230.762 37.0004Z" fill="#DDF444"/>
<path d="M257.88 37.0004C257.88 40.8187 254.79 43.9125 250.977 43.9125C247.164 43.9125 244.075 40.8187 244.075 37.0004C244.075 33.182 247.164 30.0864 250.977 30.0864C254.79 30.0864 257.88 33.182 257.88 37.0004Z" fill="#DDF444"/>
<path d="M285 37.0004C285 40.8187 281.909 43.9125 278.098 43.9125C274.284 43.9125 271.195 40.8187 271.195 37.0004C271.195 33.182 274.284 30.0864 278.098 30.0864C281.909 30.0864 285 33.182 285 37.0004Z" fill="#DDF444"/>
<path d="M13.8078 67.088C13.8078 70.9063 10.7165 74.0001 6.90272 74.0001C3.09198 74.0001 0 70.9063 0 67.088C0 63.2714 3.09198 60.1758 6.90272 60.1758C10.7165 60.1758 13.8078 63.2714 13.8078 67.088Z" fill="#DDF444"/>
<path d="M40.9265 67.088C40.9265 70.9063 37.8369 74.0001 34.0238 74.0001C30.2106 74.0001 27.1211 70.9063 27.1211 67.088C27.1211 63.2714 30.2106 60.1758 34.0238 60.1758C37.8369 60.1758 40.9265 63.2714 40.9265 67.088Z" fill="#DDF444"/>
<path d="M68.0461 67.088C68.0461 70.9063 64.9547 74.0001 61.1434 74.0001C57.3303 74.0001 54.2383 70.9063 54.2383 67.088C54.2383 63.2714 57.3303 60.1758 61.1434 60.1758C64.9547 60.1758 68.0461 63.2714 68.0461 67.088Z" fill="#DDF444"/>
<path d="M95.1647 67.088C95.1647 70.9063 92.0734 74.0001 88.262 74.0001C84.4489 74.0001 81.3594 70.9063 81.3594 67.088C81.3594 63.2714 84.4489 60.1758 88.262 60.1758C92.0734 60.1758 95.1647 63.2714 95.1647 67.088Z" fill="#DDF444"/>
<path d="M122.284 67.088C122.284 70.9063 119.193 74.0001 115.379 74.0001C111.569 74.0001 108.477 70.9063 108.477 67.088C108.477 63.2714 111.569 60.1758 115.379 60.1758C119.193 60.1758 122.284 63.2714 122.284 67.088Z" fill="#DDF444"/>
<path d="M149.402 67.088C149.402 70.9063 146.311 74.0001 142.5 74.0001C138.687 74.0001 135.597 70.9063 135.597 67.088C135.597 63.2714 138.687 60.1758 142.5 60.1758C146.311 60.1758 149.402 63.2714 149.402 67.088Z" fill="#DDF444"/>
<path d="M176.52 67.088C176.52 70.9063 173.431 74.0001 169.618 74.0001C165.807 74.0001 162.717 70.9063 162.717 67.088C162.717 63.2714 165.807 60.1758 169.618 60.1758C173.431 60.1758 176.52 63.2714 176.52 67.088Z" fill="#DDF444"/>
<path d="M203.643 67.088C203.643 70.9063 200.551 74.0001 196.738 74.0001C192.925 74.0001 189.835 70.9063 189.835 67.088C189.835 63.2714 192.925 60.1758 196.738 60.1758C200.551 60.1758 203.643 63.2714 203.643 67.088Z" fill="#DDF444"/>
<path d="M230.762 67.088C230.762 70.9063 227.673 74.0001 223.857 74.0001C220.047 74.0001 216.955 70.9063 216.955 67.088C216.955 63.2714 220.047 60.1758 223.857 60.1758C227.673 60.1758 230.762 63.2714 230.762 67.088Z" fill="#DDF444"/>
<path d="M257.88 67.088C257.88 70.9063 254.79 74.0001 250.977 74.0001C247.164 74.0001 244.075 70.9063 244.075 67.088C244.075 63.2714 247.164 60.1758 250.977 60.1758C254.79 60.1758 257.88 63.2714 257.88 67.088Z" fill="#DDF444"/>
<path d="M285 67.088C285 70.9063 281.909 74.0001 278.098 74.0001C274.284 74.0001 271.195 70.9063 271.195 67.088C271.195 63.2714 274.284 60.1758 278.098 60.1758C281.909 60.1758 285 63.2714 285 67.088Z" fill="#DDF444"/>
</svg>
