<svg width="18" height="18" viewBox="0 0 18 18" fill="none" xmlns="http://www.w3.org/2000/svg">
<path d="M11.2871 3.28571C11.2871 3.58587 11.3462 3.88309 11.4611 4.16041C11.576 4.43772 11.7443 4.6897 11.9566 4.90194C12.1688 5.11419 12.4208 5.28255 12.6981 5.39742C12.9754 5.51229 13.2727 5.57141 13.5728 5.57141C13.873 5.57141 14.1702 5.51229 14.4475 5.39742C14.7248 5.28255 14.9768 5.11419 15.1891 4.90194C15.4013 4.6897 15.5697 4.43772 15.6845 4.16041C15.7994 3.88309 15.8585 3.58587 15.8585 3.28571C15.8585 2.6795 15.6177 2.09812 15.1891 1.66947C14.7604 1.24081 14.179 1 13.5728 1C12.9666 1 12.3852 1.24081 11.9566 1.66947C11.5279 2.09812 11.2871 2.6795 11.2871 3.28571Z" stroke="black" stroke-linecap="round" stroke-linejoin="round"/>
<path d="M17.0025 11.2876V10.1446C17.0025 8.25065 15.4672 6.71533 13.5733 6.71533C12.2818 6.71533 11.1571 7.42924 10.5723 8.48393" stroke="black" stroke-linecap="round" stroke-linejoin="round"/>
<path d="M2.14258 3.28571C2.14258 3.89191 2.38339 4.47329 2.81205 4.90194C3.2407 5.3306 3.82208 5.57141 4.42828 5.57141C5.03449 5.57141 5.61587 5.3306 6.04452 4.90194C6.47317 4.47329 6.71399 3.89191 6.71399 3.28571C6.71399 2.6795 6.47317 2.09812 6.04452 1.66947C5.61587 1.24081 5.03449 1 4.42828 1C3.82208 1 3.2407 1.24081 2.81205 1.66947C2.38339 2.09812 2.14258 2.6795 2.14258 3.28571Z" stroke="black" stroke-linecap="round" stroke-linejoin="round"/>
<path d="M1 11.2876V10.1446C1 8.25065 2.53531 6.71533 4.42922 6.71533C5.72067 6.71533 6.84538 7.42924 7.43024 8.48393" stroke="black" stroke-linecap="round" stroke-linejoin="round"/>
<path d="M6.7168 10.1414C6.7168 10.7476 6.95761 11.3289 7.38626 11.7576C7.81492 12.1862 8.3963 12.4271 9.0025 12.4271C9.60871 12.4271 10.1901 12.1862 10.6187 11.7576C11.0474 11.3289 11.2882 10.7476 11.2882 10.1414C11.2882 9.53515 11.0474 8.95377 10.6187 8.52512C10.1901 8.09647 9.60871 7.85565 9.0025 7.85565C8.3963 7.85565 7.81492 8.09647 7.38626 8.52512C6.95761 8.95377 6.7168 9.53515 6.7168 10.1414Z" stroke="black" stroke-linecap="round" stroke-linejoin="round"/>
<path d="M12.4317 17.0001C12.4317 15.1062 10.8964 13.571 9.00245 13.571C7.10855 13.571 5.57324 15.1062 5.57324 17.0001" stroke="black" stroke-linecap="round" stroke-linejoin="round"/>
</svg>
