<svg width="17" height="18" viewBox="0 0 17 18" fill="none" xmlns="http://www.w3.org/2000/svg">
<path d="M8.50001 17.0498C6.69724 15.0649 4.25238 13.7794 1.59541 13.419C1.29298 13.3855 1.01367 13.2412 0.811388 13.014C0.609102 12.7866 0.498178 12.4925 0.500023 12.1882V2.28044C0.500012 2.10266 0.538511 1.92699 0.612874 1.76552C0.687236 1.60405 0.795696 1.4606 0.930791 1.34504C1.06351 1.23159 1.21884 1.14768 1.38649 1.09887C1.55412 1.05006 1.73023 1.03748 1.9031 1.06196C4.44376 1.48364 6.76798 2.74983 8.50001 4.65584V17.0498Z" stroke="black" stroke-linecap="round" stroke-linejoin="round"/>
<path d="M8.5 17.0498C10.3028 15.0649 12.7476 13.7794 15.4046 13.419C15.707 13.3855 15.9864 13.2412 16.1886 13.014C16.3909 12.7866 16.5018 12.4925 16.5 12.1882V2.28044C16.5 2.10266 16.4615 1.92699 16.3871 1.76552C16.3128 1.60405 16.2044 1.4606 16.0692 1.34504C15.9365 1.23159 15.7812 1.14768 15.6136 1.09887C15.4458 1.05006 15.2698 1.03748 15.0969 1.06196C12.5562 1.48364 10.232 2.74983 8.5 4.65584V17.0498Z" stroke="black" stroke-linecap="round" stroke-linejoin="round"/>
</svg>
