<svg width="39" height="39" viewBox="0 0 39 39" fill="none" xmlns="http://www.w3.org/2000/svg">
<path d="M1.28125 34.4393C1.29286 35.0172 1.489 35.5813 1.84832 36.0703C2.20763 36.5592 2.71641 36.9544 3.31932 37.2126C3.92139 37.5044 4.60116 37.6577 5.29268 37.6577C5.9842 37.6577 6.66401 37.5044 7.26605 37.2126L35.249 22.3755C35.8578 22.124 36.3716 21.7304 36.7313 21.2398C37.0907 20.7492 37.2812 20.1816 37.2812 19.6022C37.2812 19.0228 37.0907 18.4552 36.7313 17.9646C36.3716 17.474 35.8578 17.0803 35.249 16.8289L7.26605 2.1026C6.66401 1.81097 5.9842 1.65771 5.29268 1.65771C4.60116 1.65771 3.92139 1.81097 3.31932 2.1026C2.71641 2.36104 2.20763 2.75621 1.84832 3.24515C1.489 3.73409 1.29286 4.29812 1.28125 4.87592V34.4393Z" stroke="#DBE5FF" stroke-width="2" stroke-linecap="round" stroke-linejoin="round"/>
</svg>
