<svg width="228" height="148" viewBox="0 0 228 148" fill="none" xmlns="http://www.w3.org/2000/svg">
<path d="M82.65 38.9255L85.0262 34.5262L82.65 38.9255ZM44.5041 71.7008L48.2912 68.4361L44.5041 71.7008ZM226.917 104.675C228.162 102.21 227.174 99.2028 224.709 97.9577L184.543 77.6673C182.078 76.4222 179.071 77.411 177.826 79.8757C176.58 82.3405 177.569 85.348 180.034 86.5931L215.737 104.629L197.701 140.332C196.456 142.797 197.445 145.804 199.91 147.049C202.374 148.294 205.382 147.306 206.627 144.841L226.917 104.675ZM-9.64934 80.0558C10.4597 44.5506 48.2554 26.0301 80.2737 43.3247L85.0262 34.5262C46.2191 13.5646 3.16203 37.1441 -18.3507 75.1276L-9.64934 80.0558ZM80.2737 43.3247C87.1875 47.0592 89.074 51.5103 88.9828 55.376C88.8814 59.67 86.3071 64.6285 81.6643 68.767C77.075 72.8577 71.0281 75.6151 65.0413 75.9181C59.2303 76.2122 53.2823 74.2259 48.2912 68.4361L40.7171 74.9655C47.8135 83.1974 56.7937 86.3484 65.5468 85.9053C74.1239 85.4712 82.2768 81.617 88.3183 76.2319C94.3062 70.8944 98.7935 63.5126 98.98 55.612C99.1766 47.283 94.5771 39.6851 85.0262 34.5262L80.2737 43.3247ZM48.2912 68.4361C37.1782 55.5451 38.5777 37.1621 51.0196 24.3758C63.3288 11.726 87.1816 4.19602 121.08 16.2681L124.435 6.84762C87.8568 -6.17873 59.5617 1.25808 43.8526 17.4019C28.2763 33.4094 25.7874 57.6471 40.7171 74.9655L48.2912 68.4361ZM121.08 16.2681C153.23 27.7175 155.758 54.3224 161.007 78.3637C163.492 89.7504 166.857 101.747 176.774 108.202C186.808 114.731 201.69 114.51 224.016 107.17L220.893 97.6707C199.028 104.859 188.162 103.682 182.229 99.8201C176.179 95.8833 173.358 88.0545 170.776 76.2308C165.891 53.8512 162.761 20.4966 124.435 6.84762L121.08 16.2681Z" fill="#4949E9"/>
</svg>
