<svg width="18" height="18" viewBox="0 0 18 18" fill="none" xmlns="http://www.w3.org/2000/svg">
<path d="M11.2876 3.28571C11.2876 3.58587 11.3467 3.88309 11.4616 4.16041C11.5765 4.43772 11.7448 4.6897 11.9571 4.90194C12.1693 5.11419 12.4213 5.28255 12.6986 5.39742C12.9759 5.51229 13.2731 5.57141 13.5733 5.57141C13.8735 5.57141 14.1707 5.51229 14.448 5.39742C14.7253 5.28255 14.9773 5.11419 15.1895 4.90194C15.4018 4.6897 15.5702 4.43772 15.685 4.16041C15.7999 3.88309 15.859 3.58587 15.859 3.28571C15.859 2.6795 15.6182 2.09812 15.1895 1.66947C14.7609 1.24081 14.1795 1 13.5733 1C12.9671 1 12.3857 1.24081 11.9571 1.66947C11.5284 2.09812 11.2876 2.6795 11.2876 3.28571Z" stroke="black" stroke-linecap="round" stroke-linejoin="round"/>
<path d="M17.0025 11.2876V10.1446C17.0025 8.25065 15.4672 6.71533 13.5733 6.71533C12.2818 6.71533 11.1571 7.42924 10.5723 8.48393" stroke="black" stroke-linecap="round" stroke-linejoin="round"/>
<path d="M2.14258 3.28571C2.14258 3.89191 2.38339 4.47329 2.81205 4.90194C3.2407 5.3306 3.82208 5.57141 4.42828 5.57141C5.03449 5.57141 5.61587 5.3306 6.04452 4.90194C6.47317 4.47329 6.71399 3.89191 6.71399 3.28571C6.71399 2.6795 6.47317 2.09812 6.04452 1.66947C5.61587 1.24081 5.03449 1 4.42828 1C3.82208 1 3.2407 1.24081 2.81205 1.66947C2.38339 2.09812 2.14258 2.6795 2.14258 3.28571Z" stroke="black" stroke-linecap="round" stroke-linejoin="round"/>
<path d="M1 11.2876V10.1446C1 8.25065 2.53531 6.71533 4.42922 6.71533C5.72067 6.71533 6.84538 7.42924 7.43024 8.48393" stroke="black" stroke-linecap="round" stroke-linejoin="round"/>
<path d="M6.7168 10.1412C6.7168 10.7474 6.95761 11.3288 7.38626 11.7574C7.81492 12.1861 8.3963 12.4269 9.0025 12.4269C9.60871 12.4269 10.1901 12.1861 10.6187 11.7574C11.0474 11.3288 11.2882 10.7474 11.2882 10.1412C11.2882 9.53497 11.0474 8.95359 10.6187 8.52494C10.1901 8.09628 9.60871 7.85547 9.0025 7.85547C8.3963 7.85547 7.81492 8.09628 7.38626 8.52494C6.95761 8.95359 6.7168 9.53497 6.7168 10.1412Z" stroke="black" stroke-linecap="round" stroke-linejoin="round"/>
<path d="M12.4322 16.9999C12.4322 15.106 10.8968 13.5708 9.00294 13.5708C7.10903 13.5708 5.57373 15.106 5.57373 16.9999" stroke="black" stroke-linecap="round" stroke-linejoin="round"/>
</svg>
