<svg width="38" height="38" viewBox="0 0 38 38" fill="none" xmlns="http://www.w3.org/2000/svg">
<path d="M37 4.21842C36.9884 3.64047 36.7922 3.07638 36.4329 2.58744C36.0736 2.09851 35.5648 1.70331 34.9619 1.44512C34.3599 1.15336 33.6801 1 32.9886 1C32.297 1 31.6172 1.15336 31.0152 1.44512L3.03224 16.2822C2.42341 16.5337 1.90969 16.9273 1.54996 17.4179C1.19054 17.9085 1 18.4762 1 19.0555C1 19.6349 1.19054 20.2025 1.54996 20.6931C1.90969 21.1837 2.42341 21.5774 3.03224 21.8288L31.0152 36.5551C31.6172 36.8467 32.297 37 32.9886 37C33.6801 37 34.3599 36.8467 34.9619 36.5551C35.5648 36.2967 36.0736 35.9015 36.4329 35.4126C36.7922 34.9236 36.9884 34.3596 37 33.7818L37 4.21842Z" stroke="#DBE5FF" stroke-width="2" stroke-linecap="round" stroke-linejoin="round"/>
</svg>
