<svg width="219" height="225" viewBox="0 0 219 225" fill="none" xmlns="http://www.w3.org/2000/svg">
<path d="M61.5171 196.515C93.9746 215.469 125.03 215.469 157.488 196.515C189.988 177.536 205.472 150.26 205.471 112.302C205.47 74.3464 189.987 47.0719 157.488 28.0935C125.03 9.13992 93.9746 9.14018 61.5171 28.0935C29.017 47.0718 13.5333 74.3462 13.5326 112.302C13.5318 150.26 29.0158 177.537 61.5171 196.515ZM164.251 208.387C127.218 230.013 91.7844 230.012 54.7509 208.387C17.6672 186.733 -0.000257007 155.612 2.804e-09 112.302C0.00025701 68.9939 17.6676 37.8731 54.7509 16.219C91.7844 -5.40613 127.218 -5.40652 164.251 16.219C201.334 37.8733 219 68.9943 219 112.302C219 155.611 201.334 186.733 164.251 208.387Z" fill="#DCF343"/>
<path d="M79.2586 175.506C102.083 188.82 123.921 188.82 146.745 175.506C169.599 162.174 180.487 143.013 180.486 116.348C180.486 89.6852 169.598 70.5256 146.745 57.1937C123.921 43.8793 102.083 43.8795 79.2586 57.1937C56.4046 70.5255 45.5166 89.6851 45.516 116.348C45.5155 143.013 56.4038 162.174 79.2586 175.506ZM151.501 183.846C125.459 199.037 100.542 199.037 74.5006 183.846C48.4235 168.634 35.9998 146.772 36 116.348C36.0002 85.9252 48.4238 64.0637 74.5006 48.8522C100.542 33.6611 125.459 33.6608 151.501 48.8522C177.577 64.0638 190 85.9255 190 116.348C190 146.772 177.577 168.634 151.501 183.846Z" fill="#DCF343"/>
</svg>
