<svg width="107" height="16" viewBox="0 0 107 16" fill="none" xmlns="http://www.w3.org/2000/svg">
<path d="M78.193 1.35239L79.9093 4.96568C79.9484 5.05739 80.0098 5.13683 80.0874 5.19608C80.1651 5.25533 80.2563 5.29233 80.3519 5.30337L84.1408 5.8887C84.2506 5.9034 84.354 5.95035 84.439 6.02407C84.5241 6.09777 84.5874 6.19521 84.6213 6.30497C84.6553 6.41474 84.6585 6.53232 84.6308 6.64398C84.6031 6.75564 84.5455 6.85676 84.4646 6.93554L81.7336 9.76088C81.664 9.82879 81.6116 9.91379 81.5815 10.0082C81.5513 10.1025 81.5442 10.2033 81.5609 10.3012L82.2193 14.2746C82.2384 14.3889 82.2264 14.5063 82.1846 14.6137C82.1428 14.7211 82.073 14.814 81.9829 14.8821C81.893 14.9501 81.7865 14.9904 81.6756 14.9985C81.5647 15.0065 81.4539 14.982 81.3558 14.9275L77.9447 13.0477C77.8573 13.003 77.7613 12.9798 77.664 12.9798C77.5667 12.9798 77.4707 13.003 77.3834 13.0477L73.9722 14.9275C73.8741 14.982 73.7633 15.0065 73.6524 14.9985C73.5415 14.9904 73.4351 14.9501 73.3451 14.8821C73.2551 14.814 73.1852 14.7211 73.1434 14.6137C73.1017 14.5063 73.0896 14.3889 73.1087 14.2746L73.7671 10.2562C73.7838 10.1582 73.7768 10.0575 73.7466 9.96313C73.7164 9.86876 73.6641 9.78376 73.5944 9.71585L70.831 6.93554C70.7492 6.85461 70.6917 6.75068 70.6655 6.63637C70.6392 6.52205 70.6453 6.40224 70.683 6.29145C70.7207 6.18067 70.7884 6.08366 70.8779 6.01217C70.9674 5.94069 71.0748 5.89779 71.1872 5.8887L74.9761 5.30337C75.0718 5.29233 75.163 5.25533 75.2406 5.19608C75.3183 5.13683 75.3797 5.05739 75.4187 4.96568L77.1351 1.35239C77.1818 1.24716 77.2565 1.15806 77.3502 1.09562C77.4439 1.03318 77.5528 1 77.664 1C77.7752 1 77.8841 1.03318 77.9779 1.09562C78.0716 1.15806 78.1462 1.24716 78.193 1.35239Z" fill="#FFC700" stroke="#FFC700" stroke-linecap="round" stroke-linejoin="round"/>
<path d="M61.0435 1.35239L62.7599 4.96568C62.7989 5.05739 62.8603 5.13683 62.938 5.19608C63.0157 5.25533 63.1068 5.29233 63.2025 5.30337L66.9914 5.8887C67.1012 5.9034 67.2046 5.95035 67.2896 6.02407C67.3747 6.09777 67.438 6.19521 67.4719 6.30497C67.5059 6.41474 67.5091 6.53232 67.4813 6.64398C67.4537 6.75564 67.3961 6.85676 67.3152 6.93554L64.5842 9.76088C64.5145 9.82879 64.4622 9.91379 64.4321 10.0082C64.4018 10.1025 64.3948 10.2033 64.4114 10.3012L65.0699 14.2746C65.089 14.3889 65.0769 14.5063 65.0352 14.6137C64.9934 14.7211 64.9235 14.814 64.8335 14.8821C64.7436 14.9501 64.6371 14.9904 64.5262 14.9985C64.4153 15.0065 64.3045 14.982 64.2063 14.9275L60.7953 13.0477C60.7079 13.003 60.6119 12.9798 60.5146 12.9798C60.4173 12.9798 60.3213 13.003 60.2339 13.0477L56.8228 14.9275C56.7247 14.982 56.6139 15.0065 56.503 14.9985C56.3921 14.9904 56.2856 14.9501 56.1957 14.8821C56.1057 14.814 56.0358 14.7211 55.994 14.6137C55.9522 14.5063 55.9402 14.3889 55.9592 14.2746L56.6177 10.2562C56.6344 10.1582 56.6273 10.0575 56.5972 9.96313C56.567 9.86876 56.5147 9.78376 56.445 9.71585L53.6816 6.93554C53.5998 6.85461 53.5423 6.75068 53.516 6.63637C53.4898 6.52205 53.4959 6.40224 53.5336 6.29145C53.5713 6.18067 53.639 6.08366 53.7285 6.01217C53.8179 5.94069 53.9254 5.89779 54.0378 5.8887L57.8267 5.30337C57.9224 5.29233 58.0136 5.25533 58.0912 5.19608C58.1689 5.13683 58.2303 5.05739 58.2693 4.96568L59.9857 1.35239C60.0324 1.24716 60.107 1.15806 60.2008 1.09562C60.2945 1.03318 60.4034 1 60.5146 1C60.6258 1 60.7347 1.03318 60.8284 1.09562C60.9222 1.15806 60.9968 1.24716 61.0435 1.35239Z" fill="#FFC700" stroke="#FFC700" stroke-linecap="round" stroke-linejoin="round"/>
<path d="M43.5435 1.35239L45.2599 4.96568C45.2989 5.05739 45.3603 5.13683 45.438 5.19608C45.5157 5.25533 45.6068 5.29233 45.7025 5.30337L49.4914 5.8887C49.6012 5.9034 49.7046 5.95035 49.7896 6.02407C49.8747 6.09777 49.938 6.19521 49.9719 6.30497C50.0059 6.41474 50.0091 6.53232 49.9813 6.64398C49.9537 6.75564 49.8961 6.85676 49.8152 6.93554L47.0842 9.76088C47.0145 9.82879 46.9622 9.91379 46.9321 10.0082C46.9018 10.1025 46.8948 10.2033 46.9114 10.3012L47.5699 14.2746C47.589 14.3889 47.5769 14.5063 47.5352 14.6137C47.4934 14.7211 47.4235 14.814 47.3335 14.8821C47.2436 14.9501 47.1371 14.9904 47.0262 14.9985C46.9153 15.0065 46.8045 14.982 46.7063 14.9275L43.2953 13.0477C43.2079 13.003 43.1119 12.9798 43.0146 12.9798C42.9173 12.9798 42.8213 13.003 42.7339 13.0477L39.3228 14.9275C39.2247 14.982 39.1139 15.0065 39.003 14.9985C38.8921 14.9904 38.7856 14.9501 38.6957 14.8821C38.6057 14.814 38.5358 14.7211 38.494 14.6137C38.4522 14.5063 38.4402 14.3889 38.4592 14.2746L39.1177 10.2562C39.1344 10.1582 39.1273 10.0575 39.0972 9.96313C39.067 9.86876 39.0147 9.78376 38.945 9.71585L36.1816 6.93554C36.0998 6.85461 36.0423 6.75068 36.016 6.63637C35.9898 6.52205 35.9959 6.40224 36.0336 6.29145C36.0713 6.18067 36.139 6.08366 36.2285 6.01217C36.3179 5.94069 36.4254 5.89779 36.5378 5.8887L40.3267 5.30337C40.4224 5.29233 40.5136 5.25533 40.5912 5.19608C40.6689 5.13683 40.7303 5.05739 40.7693 4.96568L42.4857 1.35239C42.5324 1.24716 42.607 1.15806 42.7008 1.09562C42.7945 1.03318 42.9034 1 43.0146 1C43.1258 1 43.2347 1.03318 43.3284 1.09562C43.4222 1.15806 43.4968 1.24716 43.5435 1.35239Z" fill="#FFC700" stroke="#FFC700" stroke-linecap="round" stroke-linejoin="round"/>
<path d="M26.0435 1.35239L27.7599 4.96568C27.7989 5.05739 27.8603 5.13683 27.938 5.19608C28.0157 5.25533 28.1068 5.29233 28.2025 5.30337L31.9914 5.8887C32.1012 5.9034 32.2046 5.95035 32.2896 6.02407C32.3747 6.09777 32.438 6.19521 32.4719 6.30497C32.5059 6.41474 32.5091 6.53232 32.4813 6.64398C32.4537 6.75564 32.3961 6.85676 32.3152 6.93554L29.5842 9.76088C29.5145 9.82879 29.4622 9.91379 29.4321 10.0082C29.4018 10.1025 29.3948 10.2033 29.4114 10.3012L30.0699 14.2746C30.089 14.3889 30.0769 14.5063 30.0352 14.6137C29.9934 14.7211 29.9235 14.814 29.8335 14.8821C29.7436 14.9501 29.6371 14.9904 29.5262 14.9985C29.4153 15.0065 29.3045 14.982 29.2063 14.9275L25.7953 13.0477C25.7079 13.003 25.6119 12.9798 25.5146 12.9798C25.4173 12.9798 25.3213 13.003 25.2339 13.0477L21.8228 14.9275C21.7247 14.982 21.6139 15.0065 21.503 14.9985C21.3921 14.9904 21.2856 14.9501 21.1957 14.8821C21.1057 14.814 21.0358 14.7211 20.994 14.6137C20.9522 14.5063 20.9402 14.3889 20.9592 14.2746L21.6177 10.2562C21.6344 10.1582 21.6273 10.0575 21.5972 9.96313C21.567 9.86876 21.5147 9.78376 21.445 9.71585L18.6816 6.93554C18.5998 6.85461 18.5423 6.75068 18.516 6.63637C18.4898 6.52205 18.4959 6.40224 18.5336 6.29145C18.5713 6.18067 18.639 6.08366 18.7285 6.01217C18.8179 5.94069 18.9254 5.89779 19.0378 5.8887L22.8267 5.30337C22.9224 5.29233 23.0136 5.25533 23.0912 5.19608C23.1689 5.13683 23.2303 5.05739 23.2693 4.96568L24.9857 1.35239C25.0324 1.24716 25.107 1.15806 25.2008 1.09562C25.2945 1.03318 25.4034 1 25.5146 1C25.6258 1 25.7347 1.03318 25.8284 1.09562C25.9222 1.15806 25.9968 1.24716 26.0435 1.35239Z" fill="#FFC700" stroke="#FFC700" stroke-linecap="round" stroke-linejoin="round"/>
<path d="M8.54354 1.35239L10.2599 4.96568C10.2989 5.05739 10.3603 5.13683 10.438 5.19608C10.5157 5.25533 10.6068 5.29233 10.7025 5.30337L14.4914 5.8887C14.6012 5.9034 14.7046 5.95035 14.7896 6.02407C14.8747 6.09777 14.938 6.19521 14.9719 6.30497C15.0059 6.41474 15.0091 6.53232 14.9813 6.64398C14.9537 6.75564 14.8961 6.85676 14.8152 6.93554L12.0842 9.76088C12.0145 9.82879 11.9622 9.91379 11.9321 10.0082C11.9018 10.1025 11.8948 10.2033 11.9114 10.3012L12.5699 14.2746C12.589 14.3889 12.5769 14.5063 12.5352 14.6137C12.4934 14.7211 12.4235 14.814 12.3335 14.8821C12.2436 14.9501 12.1371 14.9904 12.0262 14.9985C11.9153 15.0065 11.8045 14.982 11.7063 14.9275L8.29526 13.0477C8.20792 13.003 8.1119 12.9798 8.0146 12.9798C7.9173 12.9798 7.82129 13.003 7.73394 13.0477L4.32282 14.9275C4.22468 14.982 4.11388 15.0065 4.003 14.9985C3.89213 14.9904 3.78564 14.9501 3.69567 14.8821C3.60568 14.814 3.53582 14.7211 3.49402 14.6137C3.45224 14.5063 3.44018 14.3889 3.45924 14.2746L4.11772 10.2562C4.13441 10.1582 4.12735 10.0575 4.09719 9.96313C4.06703 9.86876 4.01471 9.78376 3.945 9.71585L1.18157 6.93554C1.09981 6.85461 1.04232 6.75068 1.01605 6.63637C0.989777 6.52205 0.995861 6.40224 1.03356 6.29145C1.07126 6.18067 1.13896 6.08366 1.22845 6.01217C1.31795 5.94069 1.4254 5.89779 1.53779 5.8887L5.32672 5.30337C5.42237 5.29233 5.51356 5.25533 5.59122 5.19608C5.66887 5.13683 5.73027 5.05739 5.76931 4.96568L7.48566 1.35239C7.5324 1.24716 7.60704 1.15806 7.70077 1.09562C7.79449 1.03318 7.90338 1 8.0146 1C8.12582 1 8.23473 1.03318 8.32844 1.09562C8.42216 1.15806 8.4968 1.24716 8.54354 1.35239Z" fill="#FFC700" stroke="#FFC700" stroke-linecap="round" stroke-linejoin="round"/>
<path d="M90.498 10.75L91.6055 10.6562C91.6875 11.1953 91.877 11.6016 92.1738 11.875C92.4746 12.1445 92.8359 12.2793 93.2578 12.2793C93.7656 12.2793 94.1953 12.0879 94.5469 11.7051C94.8984 11.3223 95.0742 10.8145 95.0742 10.1816C95.0742 9.58008 94.9043 9.10547 94.5645 8.75781C94.2285 8.41016 93.7871 8.23633 93.2402 8.23633C92.9004 8.23633 92.5938 8.31445 92.3203 8.4707C92.0469 8.62305 91.832 8.82227 91.6758 9.06836L90.6855 8.93945L91.5176 4.52734H95.7891V5.53516H92.3613L91.8984 7.84375C92.4141 7.48438 92.9551 7.30469 93.5215 7.30469C94.2715 7.30469 94.9043 7.56445 95.4199 8.08398C95.9355 8.60352 96.1934 9.27148 96.1934 10.0879C96.1934 10.8652 95.9668 11.5371 95.5137 12.1035C94.9629 12.7988 94.2109 13.1465 93.2578 13.1465C92.4766 13.1465 91.8379 12.9277 91.3418 12.4902C90.8496 12.0527 90.5684 11.4727 90.498 10.75ZM97.7695 13V11.7988H98.9707V13H97.7695ZM100.518 8.76367C100.518 7.74805 100.621 6.93164 100.828 6.31445C101.039 5.69336 101.35 5.21484 101.76 4.87891C102.174 4.54297 102.693 4.375 103.318 4.375C103.779 4.375 104.184 4.46875 104.531 4.65625C104.879 4.83984 105.166 5.10742 105.393 5.45898C105.619 5.80664 105.797 6.23242 105.926 6.73633C106.055 7.23633 106.119 7.91211 106.119 8.76367C106.119 9.77148 106.016 10.5859 105.809 11.207C105.602 11.8242 105.291 12.3027 104.877 12.6426C104.467 12.9785 103.947 13.1465 103.318 13.1465C102.49 13.1465 101.84 12.8496 101.367 12.2559C100.801 11.541 100.518 10.377 100.518 8.76367ZM101.602 8.76367C101.602 10.1738 101.766 11.1133 102.094 11.582C102.426 12.0469 102.834 12.2793 103.318 12.2793C103.803 12.2793 104.209 12.0449 104.537 11.5762C104.869 11.1074 105.035 10.1699 105.035 8.76367C105.035 7.34961 104.869 6.41016 104.537 5.94531C104.209 5.48047 103.799 5.24805 103.307 5.24805C102.822 5.24805 102.436 5.45312 102.146 5.86328C101.783 6.38672 101.602 7.35352 101.602 8.76367Z" fill="white"/>
</svg>
