<svg width="219" height="225" viewBox="0 0 219 225" fill="none" xmlns="http://www.w3.org/2000/svg">
<path d="M61.5171 196.909C93.9746 215.862 125.03 215.863 157.488 196.909C189.988 177.93 205.472 150.653 205.471 112.696C205.47 74.74 189.987 47.4655 157.488 28.4871C125.03 9.53347 93.9746 9.53374 61.5171 28.4871C29.017 47.4653 13.5333 74.7397 13.5326 112.696C13.5318 150.654 29.0158 177.93 61.5171 196.909ZM164.251 208.781C127.218 230.406 91.7844 230.406 54.7509 208.781C17.6672 187.127 -0.000257007 156.005 2.804e-09 112.696C0.00025701 69.3874 17.6676 38.2667 54.7509 16.6125C91.7844 -5.01257 127.218 -5.01297 164.251 16.6125C201.334 38.2669 219 69.3878 219 112.696C219 156.005 201.334 187.126 164.251 208.781Z" fill="#6969FE"/>
<path d="M79.2586 175.9C102.083 189.214 123.921 189.214 146.745 175.9C169.599 162.567 180.487 143.406 180.486 116.742C180.486 90.079 169.598 70.9194 146.745 57.5875C123.921 44.2731 102.083 44.2733 79.2586 57.5875C56.4046 70.9193 45.5166 90.0789 45.516 116.742C45.5155 143.407 56.4038 162.568 79.2586 175.9ZM151.501 184.239C125.459 199.431 100.542 199.431 74.5006 184.239C48.4235 169.028 35.9998 147.166 36 116.742C36.0002 86.319 48.4238 64.4575 74.5006 49.246C100.542 34.0549 125.459 34.0546 151.501 49.246C177.577 64.4576 190 86.3193 190 116.742C190 147.165 177.577 169.028 151.501 184.239Z" fill="#6969FE"/>
</svg>
