<svg width="50" height="50" viewBox="0 0 50 50" fill="none" xmlns="http://www.w3.org/2000/svg">
<path fill-rule="evenodd" clip-rule="evenodd" d="M7.02132 29.6785C9.89343 35.1286 13.6447 34.5831 18.8782 34.5842C24.432 34.5855 29.9966 34.6146 35.5492 34.5799C44.3564 34.5249 46.3354 24.5188 41.7994 20.1172C39.5104 17.896 38.6717 18.1058 36.0457 17.514C35.4599 16.2391 34.7977 15.3952 33.9917 14.4943C33.5847 14.0394 33.2577 13.7667 32.6925 13.3318C32.258 12.9975 31.64 12.6568 31.2978 12.3369C30.3091 12.0824 29.4839 11.592 28.2319 11.2833C26.8365 10.9394 25.8267 11.1878 24.5216 11.0242C23.7082 11.6565 21.8425 11.3037 19.21 13.4296C16.7787 15.3931 16.9334 16.2778 15.791 17.6757C11.8211 17.511 9.82081 18.5191 8.00268 20.8915C5.67793 23.925 6.14629 26.7056 7.02126 29.6784L7.02132 29.6785Z" fill="white"/>
<path fill-rule="evenodd" clip-rule="evenodd" d="M37.4014 22.8645C36.9159 23.4872 37.0979 24.1591 36.2745 24.7683C35.5593 25.2973 34.5352 25.3736 33.7001 24.9692C32.0488 24.1695 32.5695 22.2688 32.0093 20.5006C30.3485 15.2592 23.6731 14.2825 20.8191 18.8961C20.1952 19.9047 20.0528 19.8435 20.844 20.8496C23.4723 24.1916 21.4881 26.3198 19.5003 26.1859C17.5915 26.0573 17.5653 24.1872 16.3304 23.2073C13.1567 20.6893 9.4966 25.3908 12.011 28.4394C13.2976 29.9994 14.6038 29.6922 17.0262 29.695L35.5517 29.7086C39.8584 29.6705 40.4317 24.5113 37.4013 22.8645H37.4014Z" fill="#4949E9"/>
<path fill-rule="evenodd" clip-rule="evenodd" d="M14.42 0.386455C9.3688 0.523601 6.06361 2.03144 3.66499 4.83119C0.843884 8.12415 0.331991 11.3331 0.224248 16.6153C0.0798128 20.8167 -0.0530539 24.1757 0.0213258 28.3711C0.0263506 28.6545 0.0183459 29.0349 0.0376858 29.3059L0.224716 30.1177C-0.210636 31.8347 0.572775 38.8359 1.04686 40.4933C1.91062 43.5134 3.80826 45.6699 5.73944 47.0632C8.44142 49.0127 10.67 49.3672 14.4398 49.6313C18.0665 49.8852 21.7831 50.0679 25.4867 49.9754C32.8055 49.8169 41.0302 50.7173 45.9871 45.5953C47.9062 43.6123 49.3244 40.5042 49.5534 36.8615C49.8138 32.7227 49.8614 28.7664 49.9801 24.6481C50.0584 21.7403 49.8945 18.2723 49.6836 15.3422C49.2986 9.99167 48.687 5.61651 43.4724 2.39977C39.0335 -0.338407 30.2978 0.0201691 25.2068 0.0103563C21.4451 0.00305512 18.023 0.275127 14.4199 0.386397L14.42 0.386455ZM33.9918 14.4941C34.7978 15.395 35.4599 16.2388 36.0458 17.5137C38.6718 18.1055 39.5105 17.8957 41.7995 20.1169C46.3355 24.5185 44.3566 34.5246 35.5493 34.5796C29.9967 34.6143 24.4321 34.5853 18.8783 34.584C13.6448 34.5828 9.89354 35.1283 7.02143 29.6783C6.14646 26.7055 5.67809 23.9249 8.00285 20.8914C9.82098 18.5189 11.8212 17.5107 15.7912 17.6756C16.9335 16.2777 16.7788 15.3929 19.2102 13.4294C23.4295 10.022 30.4141 10.4957 33.9918 14.4941L33.9918 14.4941Z" fill="#4949E9"/>
</svg>
