<svg width="242" height="76" viewBox="0 0 242 76" fill="none" xmlns="http://www.w3.org/2000/svg">
<path d="M13.8268 7.43804C13.8268 11.3 10.7311 14.4297 6.91218 14.4297C3.09622 14.4297 0 11.3 0 7.43804C0 3.57609 3.09622 0.445068 6.91218 0.445068C10.7311 0.445068 13.8268 3.57609 13.8268 7.43804Z" fill="#DDF444"/>
<path d="M40.9825 7.43804C40.9825 11.3 37.8887 14.4297 34.0703 14.4297C30.252 14.4297 27.1582 11.3 27.1582 7.43804C27.1582 3.57609 30.252 0.445068 34.0703 0.445068C37.8887 0.445068 40.9825 3.57609 40.9825 7.43804Z" fill="#DDF444"/>
<path d="M68.1392 7.43804C68.1392 11.3 65.0437 14.4297 61.2271 14.4297C57.4087 14.4297 54.3125 11.3 54.3125 7.43804C54.3125 3.57609 57.4087 0.445068 61.2271 0.445068C65.0437 0.445068 68.1392 3.57609 68.1392 7.43804Z" fill="#DDF444"/>
<path d="M95.2949 7.43804C95.2949 11.3 92.1994 14.4297 88.3828 14.4297C84.5645 14.4297 81.4707 11.3 81.4707 7.43804C81.4707 3.57609 84.5645 0.445068 88.3828 0.445068C92.1994 0.445068 95.2949 3.57609 95.2949 7.43804Z" fill="#DDF444"/>
<path d="M122.452 7.43804C122.452 11.3 119.356 14.4297 115.537 14.4297C111.721 14.4297 108.625 11.3 108.625 7.43804C108.625 3.57609 111.721 0.445068 115.537 0.445068C119.356 0.445068 122.452 3.57609 122.452 7.43804Z" fill="#DDF444"/>
<path d="M149.607 7.43804C149.607 11.3 146.512 14.4297 142.695 14.4297C138.877 14.4297 135.783 11.3 135.783 7.43804C135.783 3.57609 138.877 0.445068 142.695 0.445068C146.512 0.445068 149.607 3.57609 149.607 7.43804Z" fill="#DDF444"/>
<path d="M176.762 7.43804C176.762 11.3 173.669 14.4297 169.85 14.4297C166.034 14.4297 162.94 11.3 162.94 7.43804C162.94 3.57609 166.034 0.445068 169.85 0.445068C173.669 0.445068 176.762 3.57609 176.762 7.43804Z" fill="#DDF444"/>
<path d="M203.922 7.43804C203.922 11.3 200.826 14.4297 197.008 14.4297C193.189 14.4297 190.096 11.3 190.096 7.43804C190.096 3.57609 193.189 0.445068 197.008 0.445068C200.826 0.445068 203.922 3.57609 203.922 7.43804Z" fill="#DDF444"/>
<path d="M231.079 7.43804C231.079 11.3 227.985 14.4297 224.164 14.4297C220.348 14.4297 217.252 11.3 217.252 7.43804C217.252 3.57609 220.348 0.445068 224.164 0.445068C227.985 0.445068 231.079 3.57609 231.079 7.43804Z" fill="#DDF444"/>
<path d="M13.8268 37.8676C13.8268 41.7295 10.7311 44.8587 6.91218 44.8587C3.09622 44.8587 0 41.7295 0 37.8676C0 34.0057 3.09622 30.8748 6.91218 30.8748C10.7311 30.8748 13.8268 34.0057 13.8268 37.8676Z" fill="#DDF444"/>
<path d="M40.9825 37.8676C40.9825 41.7295 37.8887 44.8587 34.0703 44.8587C30.252 44.8587 27.1582 41.7295 27.1582 37.8676C27.1582 34.0057 30.252 30.8748 34.0703 30.8748C37.8887 30.8748 40.9825 34.0057 40.9825 37.8676Z" fill="#DDF444"/>
<path d="M68.1392 37.8676C68.1392 41.7295 65.0437 44.8587 61.2271 44.8587C57.4087 44.8587 54.3125 41.7295 54.3125 37.8676C54.3125 34.0057 57.4087 30.8748 61.2271 30.8748C65.0437 30.8748 68.1392 34.0057 68.1392 37.8676Z" fill="#DDF444"/>
<path d="M95.2949 37.8676C95.2949 41.7295 92.1994 44.8587 88.3828 44.8587C84.5645 44.8587 81.4707 41.7295 81.4707 37.8676C81.4707 34.0057 84.5645 30.8748 88.3828 30.8748C92.1994 30.8748 95.2949 34.0057 95.2949 37.8676Z" fill="#DDF444"/>
<path d="M122.452 37.8676C122.452 41.7295 119.356 44.8587 115.537 44.8587C111.721 44.8587 108.625 41.7295 108.625 37.8676C108.625 34.0057 111.721 30.8748 115.537 30.8748C119.356 30.8748 122.452 34.0057 122.452 37.8676Z" fill="#DDF444"/>
<path d="M149.607 37.8676C149.607 41.7295 146.512 44.8587 142.695 44.8587C138.877 44.8587 135.783 41.7295 135.783 37.8676C135.783 34.0057 138.877 30.8748 142.695 30.8748C146.512 30.8748 149.607 34.0057 149.607 37.8676Z" fill="#DDF444"/>
<path d="M176.762 37.8676C176.762 41.7295 173.669 44.8587 169.85 44.8587C166.034 44.8587 162.94 41.7295 162.94 37.8676C162.94 34.0057 166.034 30.8748 169.85 30.8748C173.669 30.8748 176.762 34.0057 176.762 37.8676Z" fill="#DDF444"/>
<path d="M203.922 37.8676C203.922 41.7295 200.826 44.8587 197.008 44.8587C193.189 44.8587 190.096 41.7295 190.096 37.8676C190.096 34.0057 193.189 30.8748 197.008 30.8748C200.826 30.8748 203.922 34.0057 203.922 37.8676Z" fill="#DDF444"/>
<path d="M231.079 37.8676C231.079 41.7295 227.985 44.8587 224.164 44.8587C220.348 44.8587 217.252 41.7295 217.252 37.8676C217.252 34.0057 220.348 30.8748 224.164 30.8748C227.985 30.8748 231.079 34.0057 231.079 37.8676Z" fill="#DDF444"/>
<path d="M13.8268 68.2987C13.8268 72.1606 10.7311 75.2897 6.91218 75.2897C3.09622 75.2897 0 72.1606 0 68.2987C0 64.4386 3.09622 61.3076 6.91218 61.3076C10.7311 61.3076 13.8268 64.4386 13.8268 68.2987Z" fill="#DDF444"/>
<path d="M40.9825 68.2987C40.9825 72.1606 37.8887 75.2897 34.0703 75.2897C30.252 75.2897 27.1582 72.1606 27.1582 68.2987C27.1582 64.4386 30.252 61.3076 34.0703 61.3076C37.8887 61.3076 40.9825 64.4386 40.9825 68.2987Z" fill="#DDF444"/>
<path d="M68.1392 68.2987C68.1392 72.1606 65.0437 75.2897 61.2271 75.2897C57.4087 75.2897 54.3125 72.1606 54.3125 68.2987C54.3125 64.4386 57.4087 61.3076 61.2271 61.3076C65.0437 61.3076 68.1392 64.4386 68.1392 68.2987Z" fill="#DDF444"/>
<path d="M95.2949 68.2987C95.2949 72.1606 92.1994 75.2897 88.3828 75.2897C84.5645 75.2897 81.4707 72.1606 81.4707 68.2987C81.4707 64.4386 84.5645 61.3076 88.3828 61.3076C92.1994 61.3076 95.2949 64.4386 95.2949 68.2987Z" fill="#DDF444"/>
<path d="M122.452 68.2987C122.452 72.1606 119.356 75.2897 115.537 75.2897C111.721 75.2897 108.625 72.1606 108.625 68.2987C108.625 64.4386 111.721 61.3076 115.537 61.3076C119.356 61.3076 122.452 64.4386 122.452 68.2987Z" fill="#DDF444"/>
<path d="M149.607 68.2987C149.607 72.1606 146.512 75.2897 142.695 75.2897C138.877 75.2897 135.783 72.1606 135.783 68.2987C135.783 64.4386 138.877 61.3076 142.695 61.3076C146.512 61.3076 149.607 64.4386 149.607 68.2987Z" fill="#DDF444"/>
<path d="M176.762 68.2987C176.762 72.1606 173.669 75.2897 169.85 75.2897C166.034 75.2897 162.94 72.1606 162.94 68.2987C162.94 64.4386 166.034 61.3076 169.85 61.3076C173.669 61.3076 176.762 64.4386 176.762 68.2987Z" fill="#DDF444"/>
<path d="M203.922 68.2987C203.922 72.1606 200.826 75.2897 197.008 75.2897C193.189 75.2897 190.096 72.1606 190.096 68.2987C190.096 64.4386 193.189 61.3076 197.008 61.3076C200.826 61.3076 203.922 64.4386 203.922 68.2987Z" fill="#DDF444"/>
<path d="M231.079 68.2987C231.079 72.1606 227.985 75.2897 224.164 75.2897C220.348 75.2897 217.252 72.1606 217.252 68.2987C217.252 64.4386 220.348 61.3076 224.164 61.3076C227.985 61.3076 231.079 64.4386 231.079 68.2987Z" fill="#DDF444"/>
</svg>
