<svg width="147" height="26" viewBox="0 0 147 26" fill="none" xmlns="http://www.w3.org/2000/svg">
<path d="M11.896 4.36C10.68 4.36 9.58133 4.57333 8.6 5C7.61867 5.40533 6.78667 6.01333 6.104 6.824C5.42133 7.61333 4.89867 8.584 4.536 9.736C4.17333 10.8667 3.992 12.1467 3.992 13.576C3.992 15.4533 4.28 17.0853 4.856 18.472C5.45333 19.8587 6.328 20.9253 7.48 21.672C8.65333 22.4187 10.1147 22.792 11.864 22.792C12.8667 22.792 13.816 22.7067 14.712 22.536C15.608 22.3653 16.4827 22.152 17.336 21.896V24.392C16.4827 24.712 15.5973 24.9467 14.68 25.096C13.784 25.2453 12.7067 25.32 11.448 25.32C9.12267 25.32 7.18133 24.84 5.624 23.88C4.06667 22.92 2.89333 21.5547 2.104 19.784C1.336 18.0133 0.952 15.9333 0.952 13.544C0.952 11.816 1.18667 10.2373 1.656 8.808C2.14667 7.37867 2.85067 6.14133 3.768 5.096C4.70667 4.05067 5.85867 3.25067 7.224 2.696C8.58933 2.12 10.1573 1.832 11.928 1.832C13.1013 1.832 14.232 1.94933 15.32 2.184C16.408 2.41867 17.3787 2.74933 18.232 3.176L17.08 5.608C16.376 5.288 15.5867 5 14.712 4.744C13.8587 4.488 12.92 4.36 11.896 4.36ZM36.8507 16.392C36.8507 17.8213 36.6588 19.0907 36.2748 20.2C35.9121 21.288 35.3788 22.216 34.6748 22.984C33.9921 23.752 33.1494 24.3387 32.1468 24.744C31.1654 25.128 30.0668 25.32 28.8508 25.32C27.7201 25.32 26.6748 25.128 25.7148 24.744C24.7548 24.3387 23.9228 23.752 23.2188 22.984C22.5148 22.216 21.9601 21.288 21.5548 20.2C21.1708 19.0907 20.9788 17.8213 20.9788 16.392C20.9788 14.4933 21.2988 12.8933 21.9388 11.592C22.5788 10.2693 23.4961 9.26667 24.6908 8.584C25.8854 7.88 27.3041 7.528 28.9468 7.528C30.5041 7.528 31.8694 7.88 33.0428 8.584C34.2374 9.26667 35.1654 10.2693 35.8268 11.592C36.5094 12.8933 36.8507 14.4933 36.8507 16.392ZM23.8908 16.392C23.8908 17.736 24.0614 18.9093 24.4028 19.912C24.7654 20.8933 25.3201 21.6507 26.0668 22.184C26.8134 22.7173 27.7628 22.984 28.9148 22.984C30.0668 22.984 31.0161 22.7173 31.7628 22.184C32.5094 21.6507 33.0534 20.8933 33.3948 19.912C33.7574 18.9093 33.9388 17.736 33.9388 16.392C33.9388 15.0267 33.7574 13.864 33.3948 12.904C33.0321 11.944 32.4774 11.208 31.7308 10.696C31.0054 10.1627 30.0561 9.896 28.8828 9.896C27.1334 9.896 25.8641 10.472 25.0748 11.624C24.2854 12.776 23.8908 14.3653 23.8908 16.392ZM47.3938 25.32C45.2604 25.32 43.5538 24.584 42.2738 23.112C40.9938 21.6187 40.3538 19.4 40.3538 16.456C40.3538 13.512 40.9938 11.2933 42.2738 9.8C43.5751 8.28533 45.2924 7.528 47.4258 7.528C48.3218 7.528 49.1004 7.64533 49.7618 7.88C50.4231 8.09333 50.9991 8.392 51.4898 8.776C51.9804 9.16 52.3964 9.58667 52.7378 10.056H52.9298C52.9084 9.77867 52.8658 9.37333 52.8018 8.84C52.7591 8.28533 52.7378 7.848 52.7378 7.528V0.679998H55.5538V25H53.2818L52.8658 22.696H52.7378C52.3964 23.1867 51.9804 23.6347 51.4898 24.04C50.9991 24.424 50.4124 24.7333 49.7298 24.968C49.0684 25.2027 48.2898 25.32 47.3938 25.32ZM47.8418 22.984C49.6551 22.984 50.9244 22.4933 51.6498 21.512C52.3964 20.5093 52.7698 19.0053 52.7698 17V16.488C52.7698 14.3547 52.4178 12.7227 51.7138 11.592C51.0098 10.44 49.7084 9.864 47.8098 9.864C46.2951 9.864 45.1538 10.472 44.3858 11.688C43.6391 12.8827 43.2658 14.4933 43.2658 16.52C43.2658 18.568 43.6391 20.1573 44.3858 21.288C45.1538 22.4187 46.3058 22.984 47.8418 22.984ZM67.6253 7.528C69.0973 7.528 70.3559 7.848 71.4013 8.488C72.4679 9.128 73.2786 10.0347 73.8333 11.208C74.4093 12.36 74.6973 13.7147 74.6973 15.272V16.968H62.9533C62.9959 18.9093 63.4866 20.392 64.4253 21.416C65.3853 22.4187 66.7186 22.92 68.4253 22.92C69.5133 22.92 70.4733 22.824 71.3053 22.632C72.1586 22.4187 73.0333 22.12 73.9293 21.736V24.2C73.0546 24.584 72.1906 24.8613 71.3373 25.032C70.4839 25.224 69.4706 25.32 68.2973 25.32C66.6759 25.32 65.2359 24.9893 63.9773 24.328C62.7399 23.6667 61.7693 22.6853 61.0653 21.384C60.3826 20.0613 60.0413 18.4507 60.0413 16.552C60.0413 14.6747 60.3506 13.064 60.9693 11.72C61.6093 10.376 62.4946 9.34133 63.6253 8.616C64.7773 7.89067 66.1106 7.528 67.6253 7.528ZM67.5933 9.832C66.2493 9.832 65.1826 10.2693 64.3933 11.144C63.6253 11.9973 63.1666 13.192 63.0173 14.728H71.7533C71.7533 13.7467 71.6039 12.8933 71.3053 12.168C71.0066 11.4427 70.5479 10.8773 69.9293 10.472C69.3319 10.0453 68.5533 9.832 67.5933 9.832ZM105.688 2.152L99.6078 25H96.6958L92.2478 10.024C92.1198 9.576 91.9918 9.11733 91.8638 8.648C91.7358 8.17867 91.6184 7.73067 91.5118 7.304C91.4051 6.87733 91.3091 6.51467 91.2238 6.216C91.1598 5.896 91.1171 5.66133 91.0958 5.512C91.0744 5.66133 91.0318 5.896 90.9678 6.216C90.9251 6.51467 90.8504 6.87733 90.7438 7.304C90.6371 7.73067 90.5198 8.18933 90.3918 8.68C90.2851 9.14933 90.1571 9.62933 90.0078 10.12L85.6878 25H82.7758L76.7278 2.152H79.7358L83.2878 16.104C83.4158 16.5947 83.5331 17.0853 83.6398 17.576C83.7464 18.0453 83.8424 18.5147 83.9278 18.984C84.0344 19.432 84.1198 19.8693 84.1838 20.296C84.2478 20.7227 84.3118 21.1387 84.3758 21.544C84.4398 21.1173 84.5038 20.68 84.5677 20.232C84.6531 19.784 84.7491 19.3253 84.8558 18.856C84.9624 18.3653 85.0798 17.8747 85.2078 17.384C85.3358 16.8933 85.4638 16.4133 85.5918 15.944L89.6238 2.152H92.5998L96.7918 16.04C96.9411 16.5307 97.0798 17.032 97.2078 17.544C97.3358 18.0347 97.4531 18.5147 97.5598 18.984C97.6664 19.4533 97.7518 19.912 97.8158 20.36C97.9011 20.7867 97.9758 21.1813 98.0398 21.544C98.1038 21.0107 98.1891 20.456 98.2958 19.88C98.4024 19.2827 98.5304 18.664 98.6798 18.024C98.8291 17.384 98.9891 16.7333 99.1598 16.072L102.68 2.152H105.688ZM111.63 7.848V25H108.814V7.848H111.63ZM110.254 1.416C110.68 1.416 111.054 1.56533 111.374 1.864C111.715 2.14133 111.886 2.58933 111.886 3.208C111.886 3.80533 111.715 4.25333 111.374 4.552C111.054 4.85067 110.68 5 110.254 5C109.784 5 109.39 4.85067 109.07 4.552C108.75 4.25333 108.59 3.80533 108.59 3.208C108.59 2.58933 108.75 2.14133 109.07 1.864C109.39 1.56533 109.784 1.416 110.254 1.416ZM128.232 20.264C128.232 21.3733 127.954 22.3013 127.4 23.048C126.845 23.7947 126.056 24.36 125.032 24.744C124.008 25.128 122.792 25.32 121.384 25.32C120.189 25.32 119.154 25.224 118.28 25.032C117.426 24.84 116.669 24.5733 116.008 24.232V21.672C116.69 22.0133 117.512 22.3333 118.472 22.632C119.453 22.9093 120.445 23.048 121.448 23.048C122.877 23.048 123.912 22.824 124.552 22.376C125.192 21.9067 125.512 21.288 125.512 20.52C125.512 20.0933 125.394 19.7093 125.16 19.368C124.925 19.0267 124.498 18.6853 123.88 18.344C123.282 18.0027 122.418 17.6187 121.288 17.192C120.178 16.7653 119.229 16.3387 118.44 15.912C117.65 15.4853 117.042 14.9733 116.616 14.376C116.189 13.7787 115.976 13.0107 115.976 12.072C115.976 10.6213 116.562 9.50133 117.736 8.712C118.93 7.92267 120.488 7.528 122.408 7.528C123.453 7.528 124.424 7.63467 125.32 7.848C126.237 8.04 127.09 8.31733 127.88 8.68L126.92 10.92C126.45 10.7067 125.949 10.5253 125.416 10.376C124.904 10.2053 124.381 10.0773 123.848 9.992C123.314 9.88533 122.77 9.832 122.216 9.832C121.064 9.832 120.178 10.024 119.56 10.408C118.962 10.7707 118.664 11.272 118.664 11.912C118.664 12.3813 118.802 12.7867 119.08 13.128C119.357 13.448 119.816 13.768 120.456 14.088C121.117 14.3867 121.992 14.7493 123.08 15.176C124.168 15.5813 125.096 15.9973 125.864 16.424C126.632 16.8507 127.218 17.3733 127.624 17.992C128.029 18.5893 128.232 19.3467 128.232 20.264ZM139 7.528C140.472 7.528 141.731 7.848 142.776 8.488C143.843 9.128 144.654 10.0347 145.208 11.208C145.784 12.36 146.072 13.7147 146.072 15.272V16.968H134.328C134.371 18.9093 134.862 20.392 135.8 21.416C136.76 22.4187 138.094 22.92 139.8 22.92C140.888 22.92 141.848 22.824 142.68 22.632C143.534 22.4187 144.408 22.12 145.304 21.736V24.2C144.43 24.584 143.566 24.8613 142.712 25.032C141.859 25.224 140.846 25.32 139.672 25.32C138.051 25.32 136.611 24.9893 135.352 24.328C134.115 23.6667 133.144 22.6853 132.44 21.384C131.758 20.0613 131.416 18.4507 131.416 16.552C131.416 14.6747 131.726 13.064 132.344 11.72C132.984 10.376 133.87 9.34133 135 8.616C136.152 7.89067 137.486 7.528 139 7.528ZM138.968 9.832C137.624 9.832 136.558 10.2693 135.768 11.144C135 11.9973 134.542 13.192 134.392 14.728H143.128C143.128 13.7467 142.979 12.8933 142.68 12.168C142.382 11.4427 141.923 10.8773 141.304 10.472C140.707 10.0453 139.928 9.832 138.968 9.832Z" fill="#4949E9"/>
</svg>
