<svg width="701" height="170" viewBox="0 0 701 170" fill="none" xmlns="http://www.w3.org/2000/svg">
<path d="M447.284 143.352L445.516 148.029L447.284 143.352ZM697.675 22.0706C700.119 23.3562 701.058 26.3795 699.772 28.8234L678.823 68.6498C677.537 71.0937 674.514 72.0328 672.07 70.7472C669.626 69.4617 668.687 66.4383 669.973 63.9944L688.594 28.5932L653.193 9.97181C650.749 8.68627 649.81 5.66291 651.095 3.21898C652.381 0.775035 655.404 -0.164037 657.848 1.12151L697.675 22.0706ZM449.051 138.675C475.712 148.751 497.085 148.65 515.868 142.657C534.837 136.604 551.617 124.405 568.83 109.406C602.854 79.759 638.425 38.9403 693.864 21.7208L696.83 31.2707C644.023 47.673 610.752 86.1401 575.4 116.945C557.925 132.172 539.884 145.49 518.907 152.183C497.743 158.936 474.045 158.811 445.516 148.029L449.051 138.675ZM0.902748 127.813C19.466 123.638 39.9783 127.37 61.1431 133.224C71.7766 136.165 82.821 139.718 94.0042 143.208C105.236 146.713 116.675 150.177 128.321 153.024C151.621 158.719 175.463 161.872 199.461 157.98C223.361 154.104 247.735 143.188 272.051 120.222L278.918 127.492C253.212 151.771 227.025 163.64 201.062 167.851C175.198 172.045 149.876 168.587 125.947 162.737C113.978 159.812 102.286 156.269 91.0251 152.754C79.7156 149.225 68.9055 145.746 58.4773 142.862C37.5187 137.065 19.0787 133.975 3.09725 137.57L0.902748 127.813ZM272.051 120.222C297.218 96.4527 316.575 83.4969 332.776 78.3941C349.445 73.1438 362.457 76.3038 374.186 83.5851C379.904 87.1345 385.288 91.6377 390.605 96.4467C393.269 98.8563 395.963 101.386 398.685 103.933C401.418 106.492 404.193 109.08 407.076 111.666C418.592 121.995 431.655 132.1 449.051 138.675L445.516 148.029C426.442 140.821 412.301 129.786 400.399 119.111C397.428 116.446 394.584 113.792 391.851 111.234C389.106 108.664 386.484 106.202 383.897 103.863C378.713 99.1751 373.857 95.1513 368.912 92.0811C359.314 86.123 349.305 83.6721 335.78 87.9322C321.786 92.3397 303.774 104.016 278.918 127.492L272.051 120.222Z" fill="url(#paint0_linear_278_1009)"/>
<defs>
<linearGradient id="paint0_linear_278_1009" x1="23.8198" y1="226.981" x2="240.144" y2="448.531" gradientUnits="userSpaceOnUse">
<stop stop-color="#F5F8FF" stop-opacity="0"/>
<stop offset="0.495" stop-color="#DCF343"/>
<stop offset="1" stop-color="#DCF343"/>
</linearGradient>
</defs>
</svg>
