<svg width="16" height="16" viewBox="0 0 16 16" fill="none" xmlns="http://www.w3.org/2000/svg">
<path d="M8.19295 1.35239L9.90931 4.96568C9.94835 5.05739 10.0098 5.13683 10.0874 5.19608C10.1651 5.25533 10.2563 5.29233 10.3519 5.30337L14.1408 5.8887C14.2506 5.9034 14.354 5.95035 14.439 6.02407C14.5241 6.09777 14.5874 6.19521 14.6213 6.30497C14.6553 6.41474 14.6585 6.53232 14.6308 6.64398C14.6031 6.75564 14.5455 6.85676 14.4646 6.93554L11.7336 9.76088C11.664 9.82879 11.6116 9.91379 11.5815 10.0082C11.5513 10.1025 11.5442 10.2033 11.5609 10.3012L12.2193 14.2746C12.2384 14.3889 12.2264 14.5063 12.1846 14.6137C12.1428 14.7211 12.073 14.814 11.9829 14.8821C11.893 14.9501 11.7865 14.9904 11.6756 14.9985C11.5647 15.0065 11.4539 14.982 11.3558 14.9275L7.94468 13.0477C7.85734 13.003 7.76132 12.9798 7.66401 12.9798C7.56671 12.9798 7.4707 13.003 7.38335 13.0477L3.97223 14.9275C3.8741 14.982 3.76329 15.0065 3.65242 14.9985C3.54155 14.9904 3.43506 14.9501 3.34508 14.8821C3.2551 14.814 3.18524 14.7211 3.14344 14.6137C3.10165 14.5063 3.08959 14.3889 3.10866 14.2746L3.76713 10.2562C3.78382 10.1582 3.77676 10.0575 3.7466 9.96313C3.71644 9.86876 3.66412 9.78376 3.59442 9.71585L0.830983 6.93554C0.749227 6.85461 0.691731 6.75068 0.665461 6.63637C0.639192 6.52205 0.645275 6.40224 0.682974 6.29145C0.720673 6.18067 0.78837 6.08366 0.877865 6.01217C0.967361 5.94069 1.07481 5.89779 1.1872 5.8887L4.97614 5.30337C5.07178 5.29233 5.16297 5.25533 5.24063 5.19608C5.31829 5.13683 5.37969 5.05739 5.41872 4.96568L7.13508 1.35239C7.18182 1.24716 7.25645 1.15806 7.35018 1.09562C7.4439 1.03318 7.5528 1 7.66401 1C7.77523 1 7.88414 1.03318 7.97786 1.09562C8.07158 1.15806 8.14621 1.24716 8.19295 1.35239Z" fill="#FFC700" stroke="#FFC700" stroke-linecap="round" stroke-linejoin="round"/>
</svg>
