<svg width="337" height="207" viewBox="0 0 337 207" fill="none" xmlns="http://www.w3.org/2000/svg">
<path d="M243.634 130.156L241.406 134.632L243.634 130.156ZM284.384 38.3418L286.9 34.0214L284.384 38.3418ZM6.45953 177.72C6.80833 180.46 9.31176 182.397 12.0511 182.049L56.6906 176.364C59.4299 176.016 61.3678 173.512 61.019 170.773C60.6702 168.034 58.1668 166.096 55.4275 166.445L15.7479 171.497L10.6952 131.818C10.3464 129.078 7.84304 127.14 5.10371 127.489C2.36442 127.838 0.42654 130.341 0.775339 133.081L6.45953 177.72ZM326.306 1.50618C329.297 30.902 320.408 68.4729 304.57 95.4641C296.658 108.948 287.277 119.334 277.26 124.887C267.483 130.306 256.994 131.221 245.863 125.68L241.406 134.632C255.734 141.764 269.706 140.508 282.108 133.633C294.27 126.892 304.783 114.861 313.195 100.525C330.005 71.8765 339.481 32.1967 336.255 0.493823L326.306 1.50618ZM245.863 125.68C228.582 117.078 220.869 106.457 218.646 96.2441C216.391 85.8872 219.531 74.8189 226.239 64.9736C232.942 55.1337 242.909 46.9979 253.322 42.6717C263.77 38.3309 273.973 38.0639 281.867 42.6622L286.9 34.0214C275.417 27.3316 261.715 28.3559 249.485 33.437C237.22 38.5326 225.737 47.9491 217.974 59.3433C210.215 70.732 205.872 84.5795 208.875 98.3713C211.909 112.308 222.194 125.068 241.406 134.632L245.863 125.68ZM281.867 42.6622C305.389 56.365 315.833 85.5436 307.003 115.647C298.217 145.605 270.082 176.698 215.884 192.208L218.635 201.822C275.397 185.578 306.651 152.38 316.599 118.462C326.505 84.6896 315.03 50.4083 286.9 34.0214L281.867 42.6622ZM215.884 192.208C189.435 199.776 169.353 195.765 152.6 187.267C135.481 178.584 121.903 165.325 108.105 153.624C94.7817 142.326 80.7168 131.995 63.8508 132.964C46.9097 133.937 29.0718 146.117 7.46567 174.028L15.3733 180.149C36.6228 152.698 52.0726 143.657 64.4243 142.947C76.8511 142.233 88.084 149.758 101.637 161.251C114.714 172.341 129.591 186.809 148.076 196.186C166.929 205.748 189.603 210.13 218.635 201.822L215.884 192.208Z" fill="url(#paint0_linear_278_1008)"/>
<defs>
<linearGradient id="paint0_linear_278_1008" x1="19.0378" y1="210.009" x2="310.688" y2="247.724" gradientUnits="userSpaceOnUse">
<stop stop-color="#CFE63C"/>
<stop offset="1" stop-color="#DCF343"/>
</linearGradient>
</defs>
</svg>
