<svg width="22" height="27" viewBox="0 0 22 27" fill="none" xmlns="http://www.w3.org/2000/svg">
<path d="M21.3704 11.0452C21.3704 19.8627 13.5255 24.8083 11.605 25.8898C11.477 25.9621 11.3321 26 11.1846 26C11.0372 26 10.8922 25.9621 10.7642 25.8898C8.84372 24.8072 1 19.8605 1 11.0452C1 8.38108 2.07308 5.82602 3.98317 3.94219C5.89327 2.05834 8.4839 1 11.1852 1C13.8864 1 16.4771 2.05834 18.3872 3.94219C20.2973 5.82602 21.3704 8.38108 21.3704 11.0452Z" stroke="white" stroke-linecap="round" stroke-linejoin="round"/>
<path d="M16.241 10.2597C16.241 13.0518 13.9775 15.3152 11.1854 15.3152C8.39333 15.3152 6.12988 13.0518 6.12988 10.2597C6.12988 7.46755 8.39333 5.2041 11.1854 5.2041C13.9775 5.2041 16.241 7.46755 16.241 10.2597Z" stroke="white"/>
</svg>
