<svg width="26" height="25" viewBox="0 0 26 25" fill="none" xmlns="http://www.w3.org/2000/svg">
<path d="M21.4105 16.572C20.1835 17.4859 18.8072 18.1809 17.342 18.6253C17.0128 18.18 16.7213 17.7084 16.4705 17.2137C16.9475 17.0361 17.4075 16.8152 17.8454 16.5558C17.7317 16.4717 17.6186 16.3844 17.5093 16.2938C14.934 17.5122 11.9488 17.5122 9.3735 16.2938C9.26658 16.3809 9.15645 16.4676 9.04185 16.5543C9.47889 16.8128 9.93836 17.0321 10.4138 17.2103C10.1629 17.7043 9.87157 18.1779 9.5423 18.6238C8.07795 18.1779 6.70174 17.4838 5.47384 16.5705C5.19066 13.5706 5.75873 10.5242 7.85111 7.40369C8.90637 6.91459 10.022 6.56873 11.1693 6.37424C11.3295 6.65754 11.475 6.94833 11.6054 7.24678C12.8233 7.06468 14.061 7.06468 15.2789 7.24678C15.3941 6.97032 15.5585 6.62872 15.7038 6.37424C16.8487 6.56873 17.9635 6.91287 19.0189 7.39897C20.8379 10.075 21.7419 13.0937 21.4105 16.572ZM13.4048 3.001e-07C6.52398 0.000427271 0.946137 5.58156 0.946777 12.466V12.4673C0.947631 19.3503 6.52634 24.9306 13.4063 24.9291H13.4078C20.2895 24.9283 25.8673 19.3473 25.8667 12.4627C25.8658 5.5784 20.2865 -0.0014941 13.4048 3.001e-07Z" fill="#DCF343"/>
<path d="M10.7707 11.4829C9.96323 11.4829 9.32666 12.2156 9.32666 13.1077C9.32666 14.0005 9.97753 14.7268 10.7707 14.7268C11.5789 14.7268 12.2095 13.9975 12.2169 13.1039C12.2238 12.2094 11.5789 11.4829 10.7707 11.4829Z" fill="#DCF343"/>
<path d="M16.1101 11.4829C15.3019 11.4829 14.666 12.2156 14.666 13.1077C14.666 14.0005 15.3169 14.7268 16.1101 14.7268C16.9176 14.7268 17.5452 13.9975 17.5542 13.1039C17.5631 12.2094 16.9176 11.4829 16.1101 11.4829Z" fill="#DCF343"/>
</svg>
