<svg width="27" height="27" viewBox="0 0 27 27" fill="none" xmlns="http://www.w3.org/2000/svg">
<path d="M12.5746 25.2088C11.5762 25.8516 10.3879 26.1334 9.2071 26.0073C8.02635 25.8811 6.92431 25.3547 6.08423 24.5154L5.35238 23.7836C5.02778 23.4554 4.8457 23.0126 4.8457 22.551C4.8457 22.0895 5.02778 21.6465 5.35238 21.3184L8.43388 18.2561C8.75872 17.9327 9.19845 17.7511 9.65685 17.7511C10.1152 17.7511 10.555 17.9327 10.8798 18.2561C11.2079 18.5808 11.6509 18.7628 12.1124 18.7628C12.574 18.7628 13.0169 18.5808 13.345 18.2561L18.2561 13.345C18.5808 13.0169 18.7628 12.574 18.7628 12.1124C18.7628 11.6509 18.5808 11.2079 18.2561 10.8798C17.9327 10.555 17.7512 10.1152 17.7512 9.65685C17.7512 9.19845 17.9327 8.75872 18.2561 8.43388L21.222 5.35238C21.5502 5.02776 21.9932 4.8457 22.4546 4.8457C22.9163 4.8457 23.3592 5.02776 23.6872 5.35238L24.4191 6.08423C25.2734 6.91246 25.8179 8.00863 25.9615 9.18981C26.1054 10.371 25.8396 11.5657 25.2087 12.5746C21.8504 17.5605 17.5605 21.8505 12.5746 25.2088Z" stroke="white" stroke-linecap="round" stroke-linejoin="round"/>
<path d="M13.5186 1C11.8746 1 10.2467 1.3238 8.72793 1.95292C7.2091 2.58204 5.82907 3.50416 4.66662 4.66662C3.50414 5.82907 2.58204 7.2091 1.95292 8.72793C1.3238 10.2467 1 11.8746 1 13.5186" stroke="white" stroke-linecap="round" stroke-linejoin="round"/>
<path d="M13.5182 5.81445C11.475 5.81445 9.51556 6.6261 8.07082 8.07082C6.6261 9.51556 5.81445 11.475 5.81445 13.5182" stroke="white" stroke-linecap="round" stroke-linejoin="round"/>
</svg>
