<svg width="26" height="25" viewBox="0 0 26 25" fill="none" xmlns="http://www.w3.org/2000/svg">
<path d="M20.6538 10.9371H20.6509C20.5177 10.9501 20.3826 10.9569 20.2486 10.9573C18.7744 10.9573 17.3991 10.2138 16.5916 8.98027V15.7132C16.5916 18.4616 14.3641 20.6897 11.617 20.6897C8.87016 20.6897 6.64269 18.4616 6.64269 15.7132C6.64269 12.9652 8.87016 10.7368 11.617 10.7368C11.721 10.7368 11.823 10.746 11.9245 10.7526V13.2047C11.823 13.1928 11.7225 13.174 11.617 13.174C10.2152 13.174 9.07865 14.311 9.07865 15.7142C9.07865 17.1166 10.2152 18.2537 11.617 18.2537C13.0197 18.2537 14.2581 17.1484 14.2581 15.746L14.2828 4.3109H16.6276C16.8491 6.4148 18.5446 8.05736 20.6538 8.21193V10.9373V10.9371ZM13.4627 0C6.56223 0 0.967773 5.59676 0.967773 12.5002C0.967773 19.4033 6.56223 25 13.4627 25C20.3632 25 25.9574 19.4033 25.9574 12.5002C25.9574 5.59676 20.3632 0 13.4627 0Z" fill="#DCF343"/>
</svg>
