<svg width="26" height="25" viewBox="0 0 26 25" fill="none" xmlns="http://www.w3.org/2000/svg">
<path d="M17.1551 14.3064C16.9313 14.8497 16.3748 15.1994 15.8105 15.3064C15.2719 15.4088 14.8274 15.2372 14.3289 15.0721C13.8838 14.9253 13.4535 14.7112 13.0551 14.4663C12.2568 13.977 11.5666 13.3222 11.0131 12.5692C10.8439 12.3387 10.6862 12.1 10.5426 11.8528C10.3503 11.5258 10.1802 11.182 10.0912 10.8133C10.0545 10.6598 10.0349 10.5017 10.0325 10.3424C10.0266 9.78414 10.2398 9.22074 10.6813 8.86101C10.9374 8.65223 11.3155 8.56128 11.6023 8.72396C11.9149 8.90051 12.0769 9.34497 12.2216 9.65687C12.3345 9.9011 12.4634 10.2222 12.4169 10.4963C12.3701 10.7698 12.1531 11.001 11.98 11.2046C11.8639 11.3417 11.846 11.4587 11.9431 11.6071C12.5148 12.5603 13.3088 13.2526 14.3451 13.6657C14.4857 13.7221 14.5952 13.7048 14.687 13.591C14.8662 13.37 15.0427 12.9386 15.3184 12.8257C15.6784 12.6779 16.0754 12.882 16.3812 13.0652C16.6652 13.2347 17.1413 13.4441 17.2181 13.7953C17.255 13.9657 17.2213 14.1452 17.1551 14.3064ZM13.6202 6.0129C10.302 6.0129 7.60254 8.71265 7.60254 12.0328C7.60254 13.1288 7.90684 14.2079 8.48302 15.1541L8.63882 15.4103L8.03767 17.6553L10.2935 17.0501L10.5483 17.2012C11.4822 17.758 12.5442 18.0528 13.62 18.0528C16.9381 18.0528 19.6376 15.3523 19.6376 12.0326C19.6376 8.71244 16.9383 6.0129 13.6202 6.0129Z" fill="#DCF343"/>
<path d="M13.62 19.4562C12.3924 19.4562 11.179 19.1456 10.0934 18.5564L6.05375 19.6394L7.1308 15.619C6.52069 14.5181 6.19997 13.2848 6.19997 12.0327C6.19997 7.93932 9.52939 4.60874 13.6203 4.60874C17.712 4.60874 21.0414 7.93932 21.0414 12.0327C21.0414 16.1254 17.712 19.4562 13.6203 19.4562H13.62ZM13.3616 0C6.46116 0 0.866699 5.59676 0.866699 12.5002C0.866699 19.4033 6.46116 25 13.3616 25C20.2621 25 25.8566 19.4033 25.8566 12.5002C25.8566 5.59676 20.2621 0 13.3616 0Z" fill="#DCF343"/>
</svg>
