<svg width="26" height="25" viewBox="0 0 26 25" fill="none" xmlns="http://www.w3.org/2000/svg">
<path d="M21.6896 7.40027C21.6896 7.44232 21.6881 7.54458 21.603 7.66028C21.2212 8.17414 20.8083 8.63465 20.297 9.01871C20.2225 9.07464 20.0981 9.13315 20.0981 9.23903C20.0981 11.9383 19.4088 14.6336 17.4421 16.5887C14.9374 19.0783 11.1801 19.7549 7.84491 18.8335C7.19938 18.6557 6.58181 18.4054 5.98898 18.091C5.79308 17.9842 5.60038 17.8732 5.4111 17.7481L5.36819 17.648C5.40895 17.6277 5.43969 17.6262 5.58907 17.648C6.52226 17.7398 7.4834 17.6012 8.36538 17.2932C8.85108 17.123 9.89289 16.7823 10.1936 16.3231L10.2153 16.3022C10.0935 16.2736 9.97207 16.2736 9.85086 16.2524C8.94477 15.9931 7.73479 15.5381 7.17377 14.0098C7.13834 13.9203 7.17376 13.8742 7.26723 13.8915C8.01285 13.9502 8.28108 13.9097 8.54079 13.8524C8.39483 13.8277 8.24481 13.7779 8.1093 13.7205C6.96741 13.2859 6.13431 12.1723 5.98194 10.968C5.96402 10.8286 5.95333 10.7102 5.96016 10.5823C5.96763 10.4924 6.00691 10.464 6.08501 10.5141C6.67271 10.8179 7.33083 10.8888 7.38439 10.8784C7.23843 10.7639 7.1025 10.6393 6.97083 10.5141C5.98108 9.57631 5.59611 7.66733 6.38846 6.47907C6.45333 6.38257 6.49537 6.38257 6.57454 6.47223C8.38459 8.53599 10.615 9.49925 13.3062 9.90017C13.3771 9.91063 13.3839 9.90019 13.3732 9.82099C13.3032 9.34705 13.2943 8.88293 13.4086 8.41411C13.5275 7.92822 13.7597 7.46899 14.0738 7.08087C14.3781 6.70557 14.7601 6.39454 15.188 6.17081C15.615 5.94772 16.0879 5.81195 16.5687 5.78057C17.0635 5.74876 17.5652 5.82793 18.0247 6.01495C18.3742 6.15798 18.6847 6.35076 18.9739 6.59669L19.1448 6.7724L19.2797 6.80764C19.9673 6.63578 20.6145 6.39324 21.2387 6.05785L21.3268 6.05018L21.3298 6.1362C21.2184 6.50147 21.021 6.84008 20.7816 7.13704C20.6258 7.33152 20.2355 7.81294 19.9696 7.85734C20.5291 7.76384 21.1032 7.62057 21.6213 7.38638H21.6892V7.40089L21.6896 7.40027ZM13.4731 0C6.57263 0 0.979004 5.59676 0.979004 12.5002C0.979004 19.4033 6.57263 25 13.4731 25C20.3736 25 25.968 19.4033 25.968 12.5002C25.968 5.59676 20.3736 0 13.4731 0Z" fill="#DCF343"/>
</svg>
