<svg width="26" height="25" viewBox="0 0 26 25" fill="none" xmlns="http://www.w3.org/2000/svg">
<path d="M16.2905 12.3972L12.3548 10.2546C12.1937 10.163 11.6416 10.2793 11.6416 10.4649V14.6419C11.6416 14.8249 12.189 14.9419 12.3503 14.8554L16.4616 12.82C16.6287 12.7297 16.4557 12.4907 16.2907 12.3974L16.2905 12.3972Z" fill="#DCF343"/>
<path d="M21.8534 14.6342C21.8534 16.6151 20.2482 18.2212 18.2685 18.2212H9.09999C7.11964 18.2212 5.51444 16.6154 5.51444 14.6342V10.3662C5.51444 8.38485 7.11943 6.77903 9.09999 6.77903H18.2685C20.2479 6.77903 21.8534 8.38464 21.8534 10.3662V14.6342ZM13.4523 0C6.55179 0 0.95752 5.59676 0.95752 12.5002C0.95752 19.4033 6.55179 25 13.4523 25C20.3527 25 25.9466 19.4033 25.9466 12.5002C25.9466 5.59676 20.3527 0 13.4523 0Z" fill="#DCF343"/>
</svg>
